<?xml version="1.0" standalone="yes"?>

<svg version="1.1" viewBox="0.0 0.0 505.0472440944882 505.9212598425197" fill="none" stroke="none" stroke-linecap="square" stroke-miterlimit="10" xmlns="http://www.w3.org/2000/svg" xmlns:xlink="http://www.w3.org/1999/xlink"><clipPath id="p.0"><path d="m0 0l505.04724 0l0 505.92126l-505.04724 0l0 -505.92126z" clip-rule="nonzero"></path></clipPath><g clip-path="url(#p.0)"><path fill="#000000" fill-opacity="0.0" d="m0 0l505.04724 0l0 505.92126l-505.04724 0z" fill-rule="nonzero"></path><path fill="#222222" d="m29.279528 252.96063l0 0c0 -123.29431 99.94978 -223.2441 223.2441 -223.2441l0 0c59.208008 0 115.99103 23.520292 157.85742 65.38668c41.866394 41.866386 65.38669 98.64939 65.38669 157.85742l0 0c0 123.29431 -99.9498 223.24408 -223.24411 223.24408l0 0c-123.29431 0 -223.2441 -99.94977 -223.2441 -223.24408z" fill-rule="nonzero"></path><path stroke="#980000" stroke-width="8.0" stroke-linejoin="round" stroke-linecap="butt" d="m29.279528 252.96063l0 0c0 -123.29431 99.94978 -223.2441 223.2441 -223.2441l0 0c59.208008 0 115.99103 23.520292 157.85742 65.38668c41.866394 41.866386 65.38669 98.64939 65.38669 157.85742l0 0c0 123.29431 -99.9498 223.24408 -223.24411 223.24408l0 0c-123.29431 0 -223.2441 -99.94977 -223.2441 -223.24408z" fill-rule="nonzero"></path><path fill="#000000" fill-opacity="0.0" d="m193.93797 71.03429l0 363.87402" fill-rule="nonzero"></path><path stroke="#d9d9d9" stroke-width="4.0" stroke-linejoin="round" stroke-linecap="butt" d="m193.93797 71.03429l0 363.87402" fill-rule="nonzero"></path><path fill="#000000" fill-opacity="0.0" d="m307.64587 71.03429l0 363.87402" fill-rule="nonzero"></path><path stroke="#d9d9d9" stroke-width="4.0" stroke-linejoin="round" stroke-linecap="butt" d="m307.64587 71.03429l0 363.87402" fill-rule="nonzero"></path><path fill="#000000" fill-opacity="0.0" d="m70.595276 309.83047l363.87402 0" fill-rule="nonzero"></path><path stroke="#d9d9d9" stroke-width="4.0" stroke-linejoin="round" stroke-linecap="butt" d="m70.595276 309.83047l363.87402 0" fill-rule="nonzero"></path><path fill="#000000" fill-opacity="0.0" d="m70.595276 196.12257l363.87402 0" fill-rule="nonzero"></path><path stroke="#d9d9d9" stroke-width="4.0" stroke-linejoin="round" stroke-linecap="butt" d="m70.595276 196.12257l363.87402 0" fill-rule="nonzero"></path><path fill="#000000" fill-opacity="0.0" d="m116.17454 99.62205l77.76379 0l0 96.503944l-77.76379 0z" fill-rule="nonzero"></path><path fill="#00a8ff" d="m161.1033 170.06204l-5.625 0l0 -35.84375q-2.03125 1.9375 -5.328125 3.875q-3.296875 1.9375 -5.921875 2.90625l0 -5.4375q4.71875 -2.21875 8.25 -5.375q3.53125 -3.1562424 5.0 -6.1249924l3.625 0l0 45.999992z" fill-rule="nonzero"></path><path fill="#000000" fill-opacity="0.0" d="m307.64697 213.32545l77.763794 0l0 96.50395l-77.763794 0z" fill-rule="nonzero"></path><path fill="#a0a0a0" d="m331.4195 271.67172l5.625 -0.75q0.96875 4.78125 3.296875 6.890625q2.328125 2.109375 5.671875 2.109375q3.96875 0 6.703125 -2.75q2.734375 -2.75 2.734375 -6.8125q0 -3.875 -2.53125 -6.390625q-2.53125 -2.515625 -6.4375 -2.515625q-1.59375 0 -3.96875 0.625l0.625 -4.9375q0.5625 0.0625 0.90625 0.0625q3.59375 0 6.46875 -1.8750153q2.875 -1.875 2.875 -5.78125q0 -3.09375 -2.09375 -5.125q-2.09375 -2.03125 -5.40625 -2.03125q-3.28125 0 -5.46875 2.0625q-2.1875 2.0625 -2.8125 6.1875l-5.625 -1.0q1.03125 -5.65625 4.6875 -8.765625q3.65625 -3.109375 9.09375 -3.109375q3.75 0 6.90625 1.609375q3.15625 1.609375 4.828125 4.390625q1.671875 2.78125 1.671875 5.90625q0 2.96875 -1.59375 5.40625q-1.59375 2.4375153 -4.71875 3.8750153q4.0625 0.9375 6.3125 3.890625q2.25 2.953125 2.25 7.390625q0 6.0 -4.375 10.171875q-4.375 4.171875 -11.0625 4.171875q-6.03125 0 -10.015625 -3.59375q-3.984375 -3.59375 -4.546875 -9.3125z" fill-rule="nonzero"></path><path fill="#000000" fill-opacity="0.0" d="m116.17454 309.8294l77.76379 0l0 96.50394l-77.76379 0z" fill-rule="nonzero"></path><path fill="#ff00b4" d="m148.57205 355.42566q-3.5 -1.28125 -5.1875 -3.65625q-1.6875 -2.375 -1.6875 -5.6875q0 -5.0 3.59375 -8.40625q3.59375 -3.40625 9.5625 -3.40625q6.0 0 9.65625 3.484375q3.65625 3.484375 3.65625 8.484375q0 3.1875 -1.671875 5.546875q-1.671875 2.359375 -5.078125 3.640625q4.21875 1.375 6.421875 4.4375q2.203125 3.0625 2.203125 7.3125q0 5.875 -4.15625 9.875q-4.15625 4.0 -10.9375 4.0q-6.78125 0 -10.9375 -4.015625q-4.15625 -4.015625 -4.15625 -10.015625q0 -4.46875 2.265625 -7.484375q2.265625 -3.015625 6.453125 -4.109375zm-1.125 -9.53125q0 3.25 2.09375 5.3125q2.09375 2.0625 5.4375 2.0625q3.25 0 5.328125 -2.046875q2.078125 -2.046875 2.078125 -5.015625q0 -3.09375 -2.140625 -5.203125q-2.140625 -2.109375 -5.328125 -2.109375q-3.21875 0 -5.34375 2.0625q-2.125 2.0625 -2.125 4.9375zm-1.8125 21.15625q0 2.40625 1.140625 4.65625q1.140625 2.25 3.390625 3.484375q2.25 1.234375 4.84375 1.234375q4.03125 0 6.65625 -2.59375q2.625 -2.59375 2.625 -6.59375q0 -4.0625 -2.703125 -6.71875q-2.703125 -2.65625 -6.765625 -2.65625q-3.96875 0 -6.578125 2.625q-2.609375 2.625 -2.609375 6.5625z" fill-rule="nonzero"></path></g></svg>

