<?xml version="1.0" standalone="yes"?>

<svg version="1.1" viewBox="0.0 0.0 505.0472440944882 505.9212598425197" fill="none" stroke="none" stroke-linecap="square" stroke-miterlimit="10" xmlns="http://www.w3.org/2000/svg" xmlns:xlink="http://www.w3.org/1999/xlink"><clipPath id="p.0"><path d="m0 0l505.04724 0l0 505.92126l-505.04724 0l0 -505.92126z" clip-rule="nonzero"></path></clipPath><g clip-path="url(#p.0)"><path fill="#000000" fill-opacity="0.0" d="m0 0l505.04724 0l0 505.92126l-505.04724 0z" fill-rule="nonzero"></path><path fill="#000000" fill-opacity="0.0" d="m46.811024 147.90552l205.70079 0l0 105.03937l-205.70079 0z" fill-rule="nonzero"></path><path fill="#ffffff" d="m75.87339 186.78989q1.828125 -5.328125 5.609375 -8.3125q3.796875 -3.0 9.578125 -3.0q2.84375 0 5.359375 0.765625q2.515625 0.765625 4.40625 2.375q1.90625 1.609375 3.0 4.125q1.09375 2.515625 1.09375 6.015625q0 2.265625 -0.515625 4.390625q-0.5 2.109375 -1.640625 4.34375q-1.125 2.21875 -2.984375 4.734375q-1.859375 2.515625 -4.5 5.59375l-12.25 14.296875l21.234375 0l0 5.1875l-27.734375 0l0 -5.765625l15.03125 -17.890625q1.96875 -2.40625 3.390625 -4.296875q1.4375 -1.90625 2.3125 -3.609375q0.875 -1.71875 1.265625 -3.359375q0.40625 -1.65625 0.40625 -3.625q0 -3.9375 -1.90625 -6.265625q-1.890625 -2.34375 -6.265625 -2.34375q-3.5 0 -5.921875 2.125q-2.40625 2.109375 -3.421875 6.046875l-5.546875 -1.53125zm44.487762 15.40625q0 5.984375 0.65625 10.078125q0.65625 4.078125 1.890625 6.5625q1.25 2.484375 3.0 3.546875q1.75 1.046875 3.9375076 1.046875q2.1875 0 3.9375 -1.046875q1.765625 -1.0625 3.0 -3.546875q1.234375 -2.484375 1.890625 -6.5625q0.65625 -4.09375 0.65625 -10.078125q0 -5.984375 -0.65625 -10.078125q-0.65625 -4.09375 -1.890625 -6.609375q-1.234375 -2.515625 -3.0 -3.609375q-1.75 -1.09375 -3.9375 -1.09375q-2.1875076 0 -3.9375076 1.09375q-1.75 1.09375 -3.0 3.609375q-1.234375 2.515625 -1.890625 6.609375q-0.65625 4.09375 -0.65625 10.078125zm24.968758 0q0 7.078125 -1.109375 12.015625q-1.09375 4.921875 -3.109375 7.984375q-2.0 3.0625 -4.890625 4.453125q-2.875 1.390625 -6.375 1.390625q-3.5000076 0 -6.3906326 -1.28125q-2.875 -1.28125 -4.890625 -4.265625q-2.0 -3.0 -3.09375 -7.953125q-1.09375 -4.96875 -1.09375 -12.34375q0 -7.078125 1.09375 -12.046875q1.09375 -4.96875 3.09375 -8.0625q2.015625 -3.109375 4.890625 -4.484375q2.890625 -1.390625 6.3906326 -1.390625q3.5 0 6.375 1.3125q2.890625 1.3125 4.890625 4.34375q2.015625 3.03125 3.109375 8.0q1.109375 4.953125 1.109375 12.328125zm32.722137 -7.296875l0 17.65625l7.015625 0l0 4.75l-7.015625 0l0 10.0l-5.609375 0l0 -10.0l-17.59375 0l0 -5.25l10.875 -36.4375l5.40625 1.03125l-10.59375 35.90625l11.90625 0l0 -9.921875l1.375 -7.734375l4.234375 0zm15.144012 19.484375q0 -3.0625 0.953125 -5.46875q0.953125 -2.421875 2.40625 -4.171875q1.46875 -1.75 3.171875 -2.90625q1.71875 -1.171875 3.1875 -1.828125q-1.3125 -0.734375 -2.671875 -1.71875q-1.34375 -0.984375 -2.4375 -2.375q-1.09375 -1.390625 -1.796875 -3.171875q-0.6875 -1.796875 -0.6875 -4.125q0 -3.359375 1.15625 -5.84375q1.171875 -2.484375 3.0625 -4.125q1.90625 -1.640625 4.34375 -2.40625q2.453125 -0.765625 5.078125 -0.765625q2.640625 0 5.078125 0.703125q2.453125 0.6875 4.34375 2.1875q1.90625 1.484375 3.0625 3.90625q1.171875 2.40625 1.171875 5.828125q0 2.1875 -0.734375 4.0625q-0.71875 1.859375 -1.859375 3.3125q-1.125 1.453125 -2.59375 2.5625q-1.453125 1.09375 -2.90625 1.8125q1.96875 0.953125 3.78125 2.203125q1.828125 1.234375 3.25 2.953125q1.421875 1.703125 2.296875 3.859375q0.890625 2.15625 0.890625 5.0q0 3.078125 -1.109375 5.671875q-1.09375 2.578125 -3.171875 4.484375q-2.078125 1.890625 -5.0 2.953125q-2.921875 1.0625 -6.5 1.0625q-3.640625 0 -6.53125 -1.0625q-2.875 -1.0625 -4.96875 -2.921875q-2.078125 -1.859375 -3.171875 -4.34375q-1.09375 -2.484375 -1.09375 -5.328125zm25.265625 -0.515625q0 -2.546875 -0.953125 -4.328125q-0.953125 -1.796875 -2.5625 -3.140625q-1.59375 -1.359375 -3.796875 -2.40625q-2.1875 -1.0625 -4.59375 -2.171875q-1.390625 0.8125 -2.671875 1.875q-1.265625 1.046875 -2.25 2.484375q-0.984375 1.421875 -1.578125 3.328125q-0.578125 1.890625 -0.578125 4.359375q0 2.125 0.6875 3.875q0.703125 1.75 1.9375 3.03125q1.25 1.28125 3.0 2.015625q1.75 0.71875 3.859375 0.71875q4.234375 0 6.859375 -2.546875q2.640625 -2.5625 2.640625 -7.09375zm-17.375 -25.625q0 2.046875 0.828125 3.546875q0.84375 1.5 2.1875 2.640625q1.359375 1.125 3.078125 2.0q1.71875 0.875 3.46875 1.609375q2.484375 -1.546875 4.265625 -3.84375q1.796875 -2.296875 1.796875 -5.953125q0 -2.40625 -0.625 -4.0q-0.625 -1.609375 -1.6875 -2.625q-1.046875 -1.03125 -2.46875 -1.46875q-1.421875 -0.4375 -2.96875 -0.4375q-1.53125 0 -2.953125 0.484375q-1.421875 0.46875 -2.515625 1.484375q-1.09375 1.015625 -1.75 2.625q-0.65625 1.609375 -0.65625 3.9375z" fill-rule="nonzero"></path><path fill="#000000" fill-opacity="0.0" d="m252.52383 71.02379l0 363.87402" fill-rule="nonzero"></path><path stroke="#ffffff" stroke-width="4.0" stroke-linejoin="round" stroke-linecap="butt" d="m252.52383 71.02379l0 363.87402" fill-rule="nonzero"></path><path fill="#000000" fill-opacity="0.0" d="m434.46216 252.9608l-363.87402 0" fill-rule="nonzero"></path><path stroke="#ffffff" stroke-width="4.0" stroke-linejoin="round" stroke-linecap="butt" d="m434.46216 252.9608l-363.87402 0" fill-rule="nonzero"></path><path fill="#060606" d="m29.278215 252.96063l0 0c0 -123.29431 99.94978 -223.2441 223.2441 -223.2441l0 0c59.208008 0 115.99103 23.520292 157.85742 65.38668c41.866394 41.866386 65.38669 98.64939 65.38669 157.85742l0 0c0 123.29431 -99.9498 223.24408 -223.24411 223.24408l0 0c-123.29431 0 -223.2441 -99.94977 -223.2441 -223.24408z" fill-rule="nonzero"></path><path stroke="#ffffff" stroke-width="4.0" stroke-linejoin="round" stroke-linecap="butt" d="m29.278215 252.96063l0 0c0 -123.29431 99.94978 -223.2441 223.2441 -223.2441l0 0c59.208008 0 115.99103 23.520292 157.85742 65.38668c41.866394 41.866386 65.38669 98.64939 65.38669 157.85742l0 0c0 123.29431 -99.9498 223.24408 -223.24411 223.24408l0 0c-123.29431 0 -223.2441 -99.94977 -223.2441 -223.24408z" fill-rule="nonzero"></path><path fill="#060606" d="m208.6483 430.66928l43.87401 -75.87399l43.874023 75.87399z" fill-rule="nonzero"></path><path stroke="#ffffff" stroke-width="4.0" stroke-linejoin="round" stroke-linecap="butt" d="m208.6483 430.66928l43.87401 -75.87399l43.874023 75.87399z" fill-rule="nonzero"></path><path fill="#060606" d="m208.64839 101.90636l43.873917 -31.856491l43.87393 31.856491l-16.758362 51.544876l-54.23114 0z" fill-rule="nonzero"></path><path stroke="#ffffff" stroke-width="4.0" stroke-linejoin="round" stroke-linecap="butt" d="m208.64839 101.90636l43.873917 -31.856491l43.87393 31.856491l-16.758362 51.544876l-54.23114 0z" fill-rule="nonzero"></path><path fill="#060606" d="m120.90035 193.1452l43.873924 -31.856491l43.87393 31.856491l-16.758362 51.544876l-54.23114 0z" fill-rule="nonzero"></path><path stroke="#ffffff" stroke-width="4.0" stroke-linejoin="round" stroke-linecap="butt" d="m120.90035 193.1452l43.873924 -31.856491l43.87393 31.856491l-16.758362 51.544876l-54.23114 0z" fill-rule="nonzero"></path><path fill="#060606" d="m296.39642 193.1452l43.87393 -31.856491l43.8739 31.856491l-16.758331 51.544876l-54.23117 0z" fill-rule="nonzero"></path><path stroke="#ffffff" stroke-width="4.0" stroke-linejoin="round" stroke-linecap="butt" d="m296.39642 193.1452l43.87393 -31.856491l43.8739 31.856491l-16.758331 51.544876l-54.23117 0z" fill-rule="nonzero"></path><path fill="#ffffe0" d="m251.22966 301.60104l0 0c0 -0.7131653 0.5781555 -1.2913208 1.291336 -1.2913208l0 0c0.34248352 0 0.6709442 0.13604736 0.91311646 0.37820435c0.24217224 0.2421875 0.3782196 0.5706482 0.3782196 0.91311646l0 0c0 0.7131958 -0.5781555 1.2913513 -1.291336 1.2913513l0 0c-0.71318054 0 -1.291336 -0.5781555 -1.291336 -1.2913513z" fill-rule="nonzero"></path><path stroke="#ffffe0" stroke-width="1.0" stroke-linejoin="round" stroke-linecap="butt" d="m251.22966 301.60104l0 0c0 -0.7131653 0.5781555 -1.2913208 1.291336 -1.2913208l0 0c0.34248352 0 0.6709442 0.13604736 0.91311646 0.37820435c0.24217224 0.2421875 0.3782196 0.5706482 0.3782196 0.91311646l0 0c0 0.7131958 -0.5781555 1.2913513 -1.291336 1.2913513l0 0c-0.71318054 0 -1.291336 -0.5781555 -1.291336 -1.2913513z" fill-rule="nonzero"></path><path fill="#ffffe0" d="m251.22966 276.95276l0 0c0 -0.7131958 0.5781555 -1.2913513 1.291336 -1.2913513l0 0c0.34248352 0 0.6709442 0.13604736 0.91311646 0.37823486c0.24217224 0.2421875 0.3782196 0.5706177 0.3782196 0.91311646l0 0c0 0.7131958 -0.5781555 1.2913208 -1.291336 1.2913208l0 0c-0.71318054 0 -1.291336 -0.578125 -1.291336 -1.2913208z" fill-rule="nonzero"></path><path stroke="#ffffe0" stroke-width="1.0" stroke-linejoin="round" stroke-linecap="butt" d="m251.22966 276.95276l0 0c0 -0.7131958 0.5781555 -1.2913513 1.291336 -1.2913513l0 0c0.34248352 0 0.6709442 0.13604736 0.91311646 0.37823486c0.24217224 0.2421875 0.3782196 0.5706177 0.3782196 0.91311646l0 0c0 0.7131958 -0.5781555 1.2913208 -1.291336 1.2913208l0 0c-0.71318054 0 -1.291336 -0.578125 -1.291336 -1.2913208z" fill-rule="nonzero"></path><path fill="#ffffe0" d="m251.22966 326.24933l0 0c0 -0.7131653 0.5781555 -1.2913208 1.291336 -1.2913208l0 0c0.34248352 0 0.6709442 0.13604736 0.91311646 0.37823486c0.24217224 0.24215698 0.3782196 0.5706177 0.3782196 0.91308594l0 0c0 0.7131958 -0.5781555 1.2913513 -1.291336 1.2913513l0 0c-0.71318054 0 -1.291336 -0.5781555 -1.291336 -1.2913513z" fill-rule="nonzero"></path><path stroke="#ffffe0" stroke-width="1.0" stroke-linejoin="round" stroke-linecap="butt" d="m251.22966 326.24933l0 0c0 -0.7131653 0.5781555 -1.2913208 1.291336 -1.2913208l0 0c0.34248352 0 0.6709442 0.13604736 0.91311646 0.37823486c0.24217224 0.24215698 0.3782196 0.5706177 0.3782196 0.91308594l0 0c0 0.7131958 -0.5781555 1.2913513 -1.291336 1.2913513l0 0c-0.71318054 0 -1.291336 -0.5781555 -1.291336 -1.2913513z" fill-rule="nonzero"></path></g></svg>

