<?xml version="1.0" standalone="yes"?>

<svg version="1.1" viewBox="0.0 0.0 505.0472440944882 505.9212598425197" fill="none" stroke="none" stroke-linecap="square" stroke-miterlimit="10" xmlns="http://www.w3.org/2000/svg" xmlns:xlink="http://www.w3.org/1999/xlink"><clipPath id="p.0"><path d="m0 0l505.04724 0l0 505.92126l-505.04724 0l0 -505.92126z" clip-rule="nonzero"></path></clipPath><g clip-path="url(#p.0)"><path fill="#000000" fill-opacity="0.0" d="m0 0l505.04724 0l0 505.92126l-505.04724 0z" fill-rule="nonzero"></path><path fill="#2b3e50" d="m29.279528 252.96063l0 0c0 -123.29431 99.94978 -223.2441 223.2441 -223.2441l0 0c59.208008 0 115.99103 23.520292 157.85742 65.38668c41.866394 41.866386 65.38669 98.64939 65.38669 157.85742l0 0c0 123.29431 -99.9498 223.24408 -223.24411 223.24408l0 0c-123.29431 0 -223.2441 -99.94977 -223.2441 -223.24408z" fill-rule="nonzero"></path><path stroke="#980000" stroke-width="8.0" stroke-linejoin="round" stroke-linecap="butt" d="m29.279528 252.96063l0 0c0 -123.29431 99.94978 -223.2441 223.2441 -223.2441l0 0c59.208008 0 115.99103 23.520292 157.85742 65.38668c41.866394 41.866386 65.38669 98.64939 65.38669 157.85742l0 0c0 123.29431 -99.9498 223.24408 -223.24411 223.24408l0 0c-123.29431 0 -223.2441 -99.94977 -223.2441 -223.24408z" fill-rule="nonzero"></path><path fill="#2b3e50" d="m208.64961 430.66928l43.87401 -75.87399l43.874023 75.87399z" fill-rule="nonzero"></path><path stroke="#40e0d0" stroke-width="4.0" stroke-linejoin="round" stroke-linecap="butt" d="m208.64961 430.66928l43.87401 -75.87399l43.874023 75.87399z" fill-rule="nonzero"></path><path fill="#2b3e50" d="m208.6497 101.90636l43.873917 -31.856491l43.87393 31.856491l-16.758362 51.544876l-54.23114 0z" fill-rule="nonzero"></path><path stroke="#00bfff" stroke-width="4.0" stroke-linejoin="round" stroke-linecap="butt" d="m208.6497 101.90636l43.873917 -31.856491l43.87393 31.856491l-16.758362 51.544876l-54.23114 0z" fill-rule="nonzero"></path><path fill="#2b3e50" d="m120.901665 193.1452l43.873924 -31.856491l43.87393 31.856491l-16.758362 51.544876l-54.23114 0z" fill-rule="nonzero"></path><path stroke="#00bfff" stroke-width="4.0" stroke-linejoin="round" stroke-linecap="butt" d="m120.901665 193.1452l43.873924 -31.856491l43.87393 31.856491l-16.758362 51.544876l-54.23114 0z" fill-rule="nonzero"></path><path fill="#2b3e50" d="m296.39774 193.1452l43.87393 -31.856491l43.8739 31.856491l-16.758331 51.544876l-54.23117 0z" fill-rule="nonzero"></path><path stroke="#00bfff" stroke-width="4.0" stroke-linejoin="round" stroke-linecap="butt" d="m296.39774 193.1452l43.87393 -31.856491l43.8739 31.856491l-16.758331 51.544876l-54.23117 0z" fill-rule="nonzero"></path><path fill="#ffffe0" d="m251.23097 301.60104l0 0c0 -0.7131653 0.5781555 -1.2913208 1.291336 -1.2913208l0 0c0.34248352 0 0.6709442 0.13604736 0.91311646 0.37820435c0.24217224 0.2421875 0.3782196 0.5706482 0.3782196 0.91311646l0 0c0 0.7131958 -0.5781555 1.2913513 -1.291336 1.2913513l0 0c-0.71318054 0 -1.291336 -0.5781555 -1.291336 -1.2913513z" fill-rule="nonzero"></path><path stroke="#ffffe0" stroke-width="1.0" stroke-linejoin="round" stroke-linecap="butt" d="m251.23097 301.60104l0 0c0 -0.7131653 0.5781555 -1.2913208 1.291336 -1.2913208l0 0c0.34248352 0 0.6709442 0.13604736 0.91311646 0.37820435c0.24217224 0.2421875 0.3782196 0.5706482 0.3782196 0.91311646l0 0c0 0.7131958 -0.5781555 1.2913513 -1.291336 1.2913513l0 0c-0.71318054 0 -1.291336 -0.5781555 -1.291336 -1.2913513z" fill-rule="nonzero"></path><path fill="#ffffe0" d="m251.23097 276.95276l0 0c0 -0.7131958 0.5781555 -1.2913513 1.291336 -1.2913513l0 0c0.34248352 0 0.6709442 0.13604736 0.91311646 0.37823486c0.24217224 0.2421875 0.3782196 0.5706177 0.3782196 0.91311646l0 0c0 0.7131958 -0.5781555 1.2913208 -1.291336 1.2913208l0 0c-0.71318054 0 -1.291336 -0.578125 -1.291336 -1.2913208z" fill-rule="nonzero"></path><path stroke="#ffffe0" stroke-width="1.0" stroke-linejoin="round" stroke-linecap="butt" d="m251.23097 276.95276l0 0c0 -0.7131958 0.5781555 -1.2913513 1.291336 -1.2913513l0 0c0.34248352 0 0.6709442 0.13604736 0.91311646 0.37823486c0.24217224 0.2421875 0.3782196 0.5706177 0.3782196 0.91311646l0 0c0 0.7131958 -0.5781555 1.2913208 -1.291336 1.2913208l0 0c-0.71318054 0 -1.291336 -0.578125 -1.291336 -1.2913208z" fill-rule="nonzero"></path><path fill="#ffffe0" d="m251.23097 326.24933l0 0c0 -0.7131653 0.5781555 -1.2913208 1.291336 -1.2913208l0 0c0.34248352 0 0.6709442 0.13604736 0.91311646 0.37823486c0.24217224 0.24215698 0.3782196 0.5706177 0.3782196 0.91308594l0 0c0 0.7131958 -0.5781555 1.2913513 -1.291336 1.2913513l0 0c-0.71318054 0 -1.291336 -0.5781555 -1.291336 -1.2913513z" fill-rule="nonzero"></path><path stroke="#ffffe0" stroke-width="1.0" stroke-linejoin="round" stroke-linecap="butt" d="m251.23097 326.24933l0 0c0 -0.7131653 0.5781555 -1.2913208 1.291336 -1.2913208l0 0c0.34248352 0 0.6709442 0.13604736 0.91311646 0.37823486c0.24217224 0.24215698 0.3782196 0.5706177 0.3782196 0.91308594l0 0c0 0.7131958 -0.5781555 1.2913513 -1.291336 1.2913513l0 0c-0.71318054 0 -1.291336 -0.5781555 -1.291336 -1.2913513z" fill-rule="nonzero"></path></g></svg>

