<?xml version="1.0" standalone="yes"?>

<svg version="1.1" viewBox="0.0 0.0 505.0472440944882 505.9212598425197" fill="none" stroke="none" stroke-linecap="square" stroke-miterlimit="10" xmlns="http://www.w3.org/2000/svg" xmlns:xlink="http://www.w3.org/1999/xlink"><clipPath id="p.0"><path d="m0 0l505.04724 0l0 505.92126l-505.04724 0l0 -505.92126z" clip-rule="nonzero"></path></clipPath><g clip-path="url(#p.0)"><path fill="#000000" fill-opacity="0.0" d="m0 0l505.04724 0l0 505.92126l-505.04724 0z" fill-rule="nonzero"></path><path fill="#2a333c" d="m29.279528 252.96063l0 0c0 -123.29431 99.94978 -223.2441 223.2441 -223.2441l0 0c59.208008 0 115.99103 23.520292 157.85742 65.38668c41.866394 41.866386 65.38669 98.64939 65.38669 157.85742l0 0c0 123.29431 -99.9498 223.24408 -223.24411 223.24408l0 0c-123.29431 0 -223.2441 -99.94977 -223.2441 -223.24408z" fill-rule="nonzero"></path><path stroke="#2a333c" stroke-width="4.0" stroke-linejoin="round" stroke-linecap="butt" d="m29.279528 252.96063l0 0c0 -123.29431 99.94978 -223.2441 223.2441 -223.2441l0 0c59.208008 0 115.99103 23.520292 157.85742 65.38668c41.866394 41.866386 65.38669 98.64939 65.38669 157.85742l0 0c0 123.29431 -99.9498 223.24408 -223.24411 223.24408l0 0c-123.29431 0 -223.2441 -99.94977 -223.2441 -223.24408z" fill-rule="nonzero"></path><path fill="#000000" fill-opacity="0.0" d="m70.55905 147.90552l181.95276 0l0 105.03937l-181.95276 0z" fill-rule="nonzero"></path><path fill="#b94a48" d="m88.53656 227.30551l0 -9.125l16.0 -22.8125q0.296875 -0.390625 1.25 -1.71875q0.96875 -1.34375 1.28125 -1.828125q0.328125 -0.484375 1.109375 -1.703125q0.78125 -1.234375 1.078125 -1.890625q0.3125 -0.671875 0.828125 -1.875q0.515625 -1.21875 0.71875 -2.15625q0.21875 -0.953125 0.390625 -2.21875q0.1875 -1.265625 0.1875 -2.578125q0 -3.8125 -1.765625 -6.46875q-1.765625 -2.65625 -5.078125 -2.65625q-1.953125 0 -3.34375 0.96875q-1.390625 0.953125 -2.125 2.671875q-0.734375 1.703125 -1.0625 3.609375q-0.3125 1.90625 -0.3125 4.15625l0 2.28125l-9.125 0l0 -2.28125q0 -8.984375 3.84375 -13.9375q3.859375 -4.953125 12.125 -4.953125q7.78125 0 11.875 4.375q4.09375 4.359375 4.09375 12.234375q0 2.953125 -0.515625 5.53125q-0.515625 2.5625 -1.640625 4.921875q-1.125 2.34375 -2.078125 3.875q-0.9375 1.53125 -2.609375 3.921875l-15.96875 20.53125l22.8125 0l0 9.125l-31.96875 0zm53.38022 0.640625q-5.203125 0 -8.859375 -2.453125q-3.65625 -2.46875 -5.390625 -6.65625q-1.71875 -4.1875 -1.71875 -9.78125l0 -27.375q0 -8.796875 3.984375 -13.84375q4.0 -5.046875 11.984375 -5.046875q7.953125 0 11.953125 5.0625q4.015625 5.0625 4.015625 13.828125l0 27.375q0 8.59375 -4.078125 13.75q-4.078125 5.140625 -11.890625 5.140625zm0 -7.484375q6.84375 0 6.84375 -11.40625l0 -27.375q0 -1.921875 -0.140625 -3.4375q-0.140625 -1.515625 -0.59375 -3.0625q-0.4375 -1.5625 -1.171875 -2.59375q-0.734375 -1.03125 -1.984375 -1.671875q-1.234375 -0.640625 -2.953125 -0.640625q-1.703125 0 -2.953125 0.640625q-1.25 0.640625 -1.984375 1.671875q-0.734375 1.03125 -1.1875 2.59375q-0.4375 1.546875 -0.578125 3.0625q-0.140625 1.515625 -0.140625 3.4375l0 27.375q0 2.25 0.296875 4.140625q0.3125 1.890625 1.03125 3.609375q0.734375 1.703125 2.125 2.6875q1.390625 0.96875 3.390625 0.96875zm31.643066 -18.171875l9.125 0l0 -27.453125l-9.125 27.453125zm9.125 25.015625l0 -16.390625l-18.25 0l0 -10.171875l15.96875 -37.34375l11.40625 0l0 38.890625l7.0625 0l0 8.625l-7.0625 0l0 16.390625l-9.125 0zm35.997894 -37.890625q1.78125 0 2.96875 -0.8125q1.203125 -0.828125 1.765625 -2.375q0.578125 -1.546875 0.765625 -3.109375q0.203125 -1.578125 0.203125 -3.71875q0 -9.125 -5.703125 -9.125q-5.765625 0 -5.765625 9.125q0 2.140625 0.203125 3.734375q0.21875 1.578125 0.78125 3.109375q0.578125 1.53125 1.765625 2.359375q1.203125 0.8125 3.015625 0.8125zm-3.0625 30.421875q1.28125 0.625 3.0625 0.625q1.78125 0 3.0625 -0.640625q1.296875 -0.640625 2.0 -1.59375q0.71875 -0.96875 1.125 -2.546875q0.40625 -1.59375 0.515625 -3.046875q0.109375 -1.46875 0.109375 -3.546875q0 -2.28125 -0.28125 -4.078125q-0.28125 -1.796875 -1.0 -3.4375q-0.71875 -1.640625 -2.109375 -2.53125q-1.390625 -0.890625 -3.421875 -0.890625q-2.03125 0 -3.4375 0.890625q-1.40625 0.890625 -2.140625 2.515625q-0.71875 1.625 -1.015625 3.421875q-0.28125 1.796875 -0.28125 4.109375q0 2.078125 0.125 3.5625q0.125 1.46875 0.53125 3.0625q0.40625 1.578125 1.140625 2.546875q0.734375 0.953125 2.015625 1.578125zm3.0625 8.109375q-8.40625 0 -12.203125 -4.859375q-3.796875 -4.875 -3.796875 -14.0q0 -5.953125 1.640625 -9.5625q1.640625 -3.625 5.28125 -5.9375q-3.078125 -2.3125 -4.546875 -5.703125q-1.453125 -3.390625 -1.453125 -8.484375q0 -7.90625 3.78125 -12.25q3.78125 -4.359375 11.296875 -4.359375q7.484375 0 11.25 4.375q3.765625 4.359375 3.765625 12.234375q0 5.125 -1.453125 8.5q-1.4375 3.375 -4.5 5.6875q3.59375 2.34375 5.234375 5.984375q1.640625 3.640625 1.640625 9.515625q0 9.125 -3.78125 14.0q-3.78125 4.859375 -12.15625 4.859375z" fill-rule="nonzero"></path><path fill="#000000" fill-opacity="0.0" d="m252.52231 252.96063l181.95276 0l0 105.03937l-181.95276 0z" fill-rule="nonzero"></path><path fill="#b94a48" d="m282.30435 324.56375q1.390625 0.953125 3.34375 0.953125q1.96875 0 3.359375 -0.953125q1.390625 -0.96875 2.109375 -2.671875q0.734375 -1.71875 1.0625 -3.625q0.328125 -1.90625 0.328125 -4.15625q0 -1.359375 0 -2.046875q0 -0.703125 -0.0625 -1.984375q-0.046875 -1.28125 -0.140625 -1.96875q-0.09375 -0.703125 -0.25 -1.765625q-0.15625 -1.078125 -0.40625 -1.65625q-0.25 -0.59375 -0.625 -1.390625q-0.375 -0.8125 -0.875 -1.234375q-0.5 -0.421875 -1.140625 -0.84375q-0.640625 -0.4375 -1.5 -0.609375q-0.859375 -0.1875 -1.84375 -0.1875q-4.421875 0 -6.84375 4.5625l0 9.125q0 2.28125 0.3125 4.171875q0.328125 1.890625 1.046875 3.609375q0.734375 1.703125 2.125 2.671875zm3.359375 8.4375q-3.28125 0 -5.96875 -1.09375q-2.671875 -1.109375 -4.515625 -3.03125q-1.828125 -1.9375 -3.09375 -4.625q-1.25 -2.6875 -1.828125 -5.796875q-0.5625 -3.125 -0.5625 -6.625l0 -20.53125q0 -3.921875 0.453125 -7.25q0.46875 -3.34375 1.609375 -6.390625q1.140625 -3.046875 2.921875 -5.171875q1.78125 -2.140625 4.578125 -3.390625q2.796875 -1.25 6.40625 -1.25q7.6875 0 11.828125 4.375q4.140625 4.359375 4.140625 12.234375l-9.125 0q0 -4.5625 -1.484375 -6.84375q-1.484375 -2.28125 -5.359375 -2.28125q-6.84375 0 -6.84375 13.6875l0 9.125q2.625 -4.5625 9.125 -4.5625q3.84375 0 6.5625 1.34375q2.734375 1.328125 4.25 3.875q1.515625 2.546875 2.1875 5.71875q0.6875 3.171875 0.6875 7.3125q0 4.484375 -0.90625 8.21875q-0.890625 3.71875 -2.75 6.6875q-1.84375 2.953125 -4.984375 4.609375q-3.125 1.65625 -7.328125 1.65625zm30.885925 -25.65625l9.125 0l0 -27.453125l-9.125 27.453125zm9.125 25.015625l0 -16.390625l-18.25 0l0 -10.171875l15.96875 -37.34375l11.40625 0l0 38.890625l7.0625 0l0 8.625l-7.0625 0l0 16.390625l-9.125 0z" fill-rule="nonzero"></path><path fill="#2a333c" d="m362.78192 333.00125q-5.203125 0 -8.859375 -2.453125q-3.65625 -2.46875 -5.390625 -6.65625q-1.71875 -4.1875 -1.71875 -9.78125l0 -27.375q0 -8.796875 3.984375 -13.84375q4.0 -5.046875 11.984375 -5.046875q7.953125 0 11.953125 5.0625q4.015625 5.0625 4.015625 13.828125l0 27.375q0 8.59375 -4.078125 13.75q-4.078125 5.140625 -11.890625 5.140625zm0 -7.484375q6.84375 0 6.84375 -11.40625l0 -27.375q0 -1.921875 -0.140625 -3.4375q-0.140625 -1.515625 -0.59375 -3.0625q-0.4375 -1.5625 -1.171875 -2.59375q-0.734375 -1.03125 -1.984375 -1.671875q-1.234375 -0.640625 -2.953125 -0.640625q-1.703125 0 -2.953125 0.640625q-1.25 0.640625 -1.984375 1.671875q-0.734375 1.03125 -1.1875 2.59375q-0.4375 1.546875 -0.578125 3.0625q-0.140625 1.515625 -0.140625 3.4375l0 27.375q0 2.25 0.296875 4.140625q0.3125 1.890625 1.03125 3.609375q0.734375 1.703125 2.125 2.6875q1.390625 0.96875 3.390625 0.96875zm38.955566 7.484375q-5.203125 0 -8.859375 -2.453125q-3.65625 -2.46875 -5.390625 -6.65625q-1.71875 -4.1875 -1.71875 -9.78125l0 -27.375q0 -8.796875 3.984375 -13.84375q4.0 -5.046875 11.984375 -5.046875q7.953125 0 11.953125 5.0625q4.015625 5.0625 4.015625 13.828125l0 27.375q0 8.59375 -4.078125 13.75q-4.078125 5.140625 -11.890625 5.140625zm0 -7.484375q6.84375 0 6.84375 -11.40625l0 -27.375q0 -1.921875 -0.140625 -3.4375q-0.140625 -1.515625 -0.59375 -3.0625q-0.4375 -1.5625 -1.171875 -2.59375q-0.734375 -1.03125 -1.984375 -1.671875q-1.234375 -0.640625 -2.953125 -0.640625q-1.703125 0 -2.953125 0.640625q-1.25 0.640625 -1.984375 1.671875q-0.734375 1.03125 -1.1875 2.59375q-0.4375 1.546875 -0.578125 3.0625q-0.140625 1.515625 -0.140625 3.4375l0 27.375q0 2.25 0.296875 4.140625q0.3125 1.890625 1.03125 3.609375q0.734375 1.703125 2.125 2.6875q1.390625 0.96875 3.390625 0.96875z" fill-rule="nonzero"></path><path fill="#000000" fill-opacity="0.0" d="m252.52383 71.02379l0 363.87402" fill-rule="nonzero"></path><path stroke="#b94a48" stroke-width="4.0" stroke-linejoin="round" stroke-linecap="butt" d="m252.52383 71.02379l0 363.87402" fill-rule="nonzero"></path><path fill="#000000" fill-opacity="0.0" d="m434.46216 252.9608l-363.87402 0" fill-rule="nonzero"></path><path stroke="#b94a48" stroke-width="4.0" stroke-linejoin="round" stroke-linecap="butt" d="m434.46216 252.9608l-363.87402 0" fill-rule="nonzero"></path></g></svg>

