<?xml version="1.0" standalone="yes"?>

<svg version="1.1" viewBox="0.0 0.0 505.0472440944882 505.9212598425197" fill="none" stroke="none" stroke-linecap="square" stroke-miterlimit="10" xmlns="http://www.w3.org/2000/svg" xmlns:xlink="http://www.w3.org/1999/xlink"><clipPath id="p.0"><path d="m0 0l505.04724 0l0 505.92126l-505.04724 0l0 -505.92126z" clip-rule="nonzero"></path></clipPath><g clip-path="url(#p.0)"><path fill="#000000" fill-opacity="0.0" d="m0 0l505.04724 0l0 505.92126l-505.04724 0z" fill-rule="nonzero"></path><path fill="#060606" d="m29.278215 252.96063l0 0c0 -123.29431 99.94978 -223.2441 223.2441 -223.2441l0 0c59.208008 0 115.99103 23.520292 157.85742 65.38668c41.866394 41.866386 65.38669 98.64939 65.38669 157.85742l0 0c0 123.29431 -99.9498 223.24408 -223.24411 223.24408l0 0c-123.29431 0 -223.2441 -99.94977 -223.2441 -223.24408z" fill-rule="nonzero"></path><path stroke="#ffffff" stroke-width="4.0" stroke-linejoin="round" stroke-linecap="butt" d="m29.278215 252.96063l0 0c0 -123.29431 99.94978 -223.2441 223.2441 -223.2441l0 0c59.208008 0 115.99103 23.520292 157.85742 65.38668c41.866394 41.866386 65.38669 98.64939 65.38669 157.85742l0 0c0 123.29431 -99.9498 223.24408 -223.24411 223.24408l0 0c-123.29431 0 -223.2441 -99.94977 -223.2441 -223.24408z" fill-rule="nonzero"></path><path fill="#000000" fill-opacity="0.0" d="m193.93666 71.03429l0 363.87402" fill-rule="nonzero"></path><path stroke="#ffffff" stroke-width="4.0" stroke-linejoin="round" stroke-linecap="butt" d="m193.93666 71.03429l0 363.87402" fill-rule="nonzero"></path><path fill="#000000" fill-opacity="0.0" d="m307.64456 71.03429l0 363.87402" fill-rule="nonzero"></path><path stroke="#ffffff" stroke-width="4.0" stroke-linejoin="round" stroke-linecap="butt" d="m307.64456 71.03429l0 363.87402" fill-rule="nonzero"></path><path fill="#000000" fill-opacity="0.0" d="m70.59396 309.83047l363.87402 0" fill-rule="nonzero"></path><path stroke="#ffffff" stroke-width="4.0" stroke-linejoin="round" stroke-linecap="butt" d="m70.59396 309.83047l363.87402 0" fill-rule="nonzero"></path><path fill="#000000" fill-opacity="0.0" d="m70.59396 196.12257l363.87402 0" fill-rule="nonzero"></path><path stroke="#ffffff" stroke-width="4.0" stroke-linejoin="round" stroke-linecap="butt" d="m70.59396 196.12257l363.87402 0" fill-rule="nonzero"></path><path fill="#000000" fill-opacity="0.0" d="m116.173225 99.62205l77.76379 0l0 96.503944l-77.76379 0z" fill-rule="nonzero"></path><path fill="#ffffff" d="m146.41577 170.06204l0 -4.421875l8.515625 0l0 -35.515625l-8.765625 5.375l-2.375 -3.640625l10.75 -6.5937424l5.4375 0l0 40.374992l6.984375 0l0 4.421875l-20.546875 0z" fill-rule="nonzero"></path><path fill="#000000" fill-opacity="0.0" d="m307.64566 213.32545l77.763794 0l0 96.50395l-77.763794 0z" fill-rule="nonzero"></path><path fill="#ffffff" d="m351.91818 262.42172q3.625 1.625 5.53125 4.453125q1.90625 2.828125 1.90625 5.890625q0 4.71875 -3.828125 8.328125q-3.828125 3.609375 -9.578125 3.609375q-3.375 0 -7.0 -1.4375q-3.625 -1.4375 -5.0625 -2.9375q-0.46875 -0.5 -0.46875 -1.0625q0 -0.5 0.359375 -0.875q0.359375 -0.375 0.859375 -0.375q0.5 0 1.125 0.46875q4.84375 3.59375 10.25 3.59375q4.5625 0 7.640625 -2.859375q3.078125 -2.859375 3.078125 -6.359375q0 -2.34375 -1.515625 -4.59375q-1.515625 -2.25 -4.359375 -3.546875q-2.84375 -1.296875 -5.75 -1.296875q-0.9375 0 -1.34375 -0.359375q-0.40625 -0.359375 -0.40625 -0.953125q0 -0.5625 0.390625 -0.9375q0.390625 -0.375 1.171875 -0.375l2.25 0.03125q3.53125 0 5.828125 -2.15625q2.296875 -2.15625 2.296875 -5.0000153q0 -2.9375 -2.40625 -5.1875q-2.40625 -2.25 -6.28125 -2.25q-2.71875 0 -5.0 0.9375q-2.28125 0.9375 -3.65625 2.5625q-0.5 0.625 -0.765625 0.765625q-0.265625 0.140625 -0.609375 0.140625q-0.53125 0 -0.90625 -0.359375q-0.375 -0.359375 -0.375 -0.859375q0 -1.25 2.71875 -3.15625q3.78125 -2.65625 8.59375 -2.65625q4.96875 0 8.15625 2.984375q3.1875 2.984375 3.1875 7.109375q0 2.6250153 -1.53125 4.9687653q-1.53125 2.34375 -4.5 3.75z" fill-rule="nonzero"></path><path fill="#000000" fill-opacity="0.0" d="m116.173225 309.8294l77.76379 0l0 96.50394l-77.76379 0z" fill-rule="nonzero"></path><path fill="#ffffff" d="m141.22827 368.94128q0 -2.6875 0.828125 -4.796875q0.84375 -2.109375 2.125 -3.640625q1.28125 -1.546875 2.78125 -2.5625q1.5 -1.03125 2.78125 -1.609375q-1.15625 -0.640625 -2.34375 -1.5q-1.171875 -0.859375 -2.140625 -2.078125q-0.953125 -1.21875 -1.5625 -2.78125q-0.609375 -1.578125 -0.609375 -3.625q0 -2.9375 1.015625 -5.109375q1.03125 -2.1875 2.6875 -3.625q1.671875 -1.4375 3.8125 -2.109375q2.140625 -0.671875 4.453125 -0.671875q2.296875 0 4.4375 0.609375q2.15625 0.609375 3.8125 1.921875q1.671875 1.3125 2.6875 3.421875q1.03125 2.109375 1.03125 5.109375q0 1.921875 -0.640625 3.5625q-0.640625 1.625 -1.640625 2.90625q-0.984375 1.28125 -2.265625 2.25q-1.28125 0.953125 -2.5625 1.59375q1.734375 0.828125 3.328125 1.921875q1.609375 1.078125 2.84375 2.59375q1.25 1.5 2.015625 3.390625q0.78125 1.890625 0.78125 4.375q0 2.6875 -0.96875 4.96875q-0.953125 2.265625 -2.78125 3.9375q-1.828125 1.65625 -4.390625 2.59375q-2.546875 0.921875 -5.6875 0.921875q-3.203125 0 -5.734375 -0.921875q-2.515625 -0.9375 -4.34375 -2.5625q-1.828125 -1.640625 -2.796875 -3.8125q-0.953125 -2.171875 -0.953125 -4.671875zm22.140625 -0.453125q0 -2.234375 -0.828125 -3.796875q-0.828125 -1.578125 -2.234375 -2.75q-1.40625 -1.1875 -3.328125 -2.109375q-1.921875 -0.9375 -4.03125 -1.90625q-1.21875 0.71875 -2.34375 1.640625q-1.109375 0.921875 -1.984375 2.171875q-0.859375 1.25 -1.375 2.921875q-0.515625 1.65625 -0.515625 3.828125q0 1.859375 0.609375 3.40625q0.609375 1.53125 1.703125 2.65625q1.09375 1.109375 2.625 1.75q1.53125 0.640625 3.390625 0.640625q3.703125 0 6.0 -2.234375q2.3125 -2.25 2.3125 -6.21875zm-15.21875 -22.453125q0 1.78125 0.734375 3.09375q0.734375 1.3125 1.90625 2.3125q1.1875 0.984375 2.6875 1.765625q1.515625 0.765625 3.046875 1.40625q2.171875 -1.359375 3.734375 -3.375q1.578125 -2.015625 1.578125 -5.203125q0 -2.125 -0.546875 -3.53125q-0.546875 -1.40625 -1.46875 -2.296875q-0.921875 -0.890625 -2.171875 -1.28125q-1.25 -0.390625 -2.59375 -0.390625q-1.34375 0 -2.59375 0.421875q-1.25 0.421875 -2.21875 1.3125q-0.953125 0.890625 -1.53125 2.3125q-0.5625 1.40625 -0.5625 3.453125z" fill-rule="nonzero"></path></g></svg>

