<?xml version="1.0" standalone="yes"?>

<svg version="1.1" viewBox="0.0 0.0 505.0472440944882 505.9212598425197" fill="none" stroke="none" stroke-linecap="square" stroke-miterlimit="10" xmlns="http://www.w3.org/2000/svg" xmlns:xlink="http://www.w3.org/1999/xlink"><clipPath id="p.0"><path d="m0 0l505.04724 0l0 505.92126l-505.04724 0l0 -505.92126z" clip-rule="nonzero"></path></clipPath><g clip-path="url(#p.0)"><path fill="#000000" fill-opacity="0.0" d="m0 0l505.04724 0l0 505.92126l-505.04724 0z" fill-rule="nonzero"></path><path fill="#060606" d="m29.278215 252.96063l0 0c0 -123.29431 99.94978 -223.2441 223.2441 -223.2441l0 0c59.208008 0 115.99103 23.520292 157.85742 65.38668c41.866394 41.866386 65.38669 98.64939 65.38669 157.85742l0 0c0 123.29431 -99.9498 223.24408 -223.24411 223.24408l0 0c-123.29431 0 -223.2441 -99.94977 -223.2441 -223.24408z" fill-rule="nonzero"></path><path stroke="#980000" stroke-width="8.0" stroke-linejoin="round" stroke-linecap="butt" d="m29.278215 252.96063l0 0c0 -123.29431 99.94978 -223.2441 223.2441 -223.2441l0 0c59.208008 0 115.99103 23.520292 157.85742 65.38668c41.866394 41.866386 65.38669 98.64939 65.38669 157.85742l0 0c0 123.29431 -99.9498 223.24408 -223.24411 223.24408l0 0c-123.29431 0 -223.2441 -99.94977 -223.2441 -223.24408z" fill-rule="nonzero"></path><path fill="#000000" fill-opacity="0.0" d="m46.80971 147.90552l205.70079 0l0 105.03937l-205.70079 0z" fill-rule="nonzero"></path><path fill="#edc22e" d="m104.84687 221.13364l0 6.171875l-34.546875 0q-0.0625 -2.3125 0.75 -4.453125q1.328125 -3.53125 4.234375 -6.953125q2.90625 -3.421875 8.390625 -7.90625q8.515625 -7.0 11.5 -11.078125q3.0 -4.078125 3.0 -7.71875q0 -3.8125 -2.734375 -6.421875q-2.71875 -2.625 -7.09375 -2.625q-4.640625 0 -7.421875 2.78125q-2.78125 2.78125 -2.8125 7.703125l-6.59375 -0.6875q0.671875 -7.375 5.09375 -11.234375q4.421875 -3.875 11.875 -3.875q7.515625 0 11.890625 4.171875q4.390625 4.171875 4.390625 10.328125q0 3.140625 -1.28125 6.171875q-1.28125 3.03125 -4.265625 6.390625q-2.96875 3.34375 -9.875 9.1875q-5.78125 4.84375 -7.421875 6.578125q-1.640625 1.734375 -2.703125 3.46875l25.625 0zm7.062866 -19.59375q0 -9.265625 1.90625 -14.921875q1.90625 -5.65625 5.65625 -8.71875q3.765625 -3.0625 9.468758 -3.0625q4.21875 0 7.390625 1.703125q3.171875 1.6875 5.234375 4.875q2.0625 3.1875 3.234375 7.765625q1.1875 4.578125 1.1875 12.359375q0 9.1875 -1.890625 14.84375q-1.890625 5.640625 -5.65625 8.734375q-3.75 3.078125 -9.5 3.078125q-7.5468826 0 -11.859383 -5.421875q-5.171875 -6.515625 -5.171875 -21.234375zm6.59375 0q0 12.859375 3.0 17.125q3.015625 4.25 7.4375076 4.25q4.421875 0 7.4375 -4.265625q3.015625 -4.28125 3.015625 -17.109375q0 -12.90625 -3.015625 -17.140625q-3.015625 -4.25 -7.5 -4.25q-4.4218826 0 -7.0625076 3.734375q-3.3125 4.78125 -3.3125 17.65625zm54.750374 25.765625l0 -12.515625l-22.671875 0l0 -5.875l23.84375 -33.859375l5.25 0l0 33.859375l7.0625 0l0 5.875l-7.0625 0l0 12.515625l-6.421875 0zm0 -18.390625l0 -23.5625l-16.359375 23.5625l16.359375 0zm30.094116 -9.953125q-4.0 -1.453125 -5.921875 -4.15625q-1.921875 -2.71875 -1.921875 -6.5q0 -5.703125 4.09375 -9.578125q4.109375 -3.890625 10.90625 -3.890625q6.84375 0 11.015625 3.984375q4.171875 3.96875 4.171875 9.671875q0 3.625 -1.90625 6.328125q-1.90625 2.6875 -5.796875 4.140625q4.8125 1.578125 7.328125 5.078125q2.515625 3.484375 2.515625 8.328125q0 6.703125 -4.75 11.265625q-4.734375 4.5625 -12.46875 4.5625q-7.734375 0 -12.484375 -4.578125q-4.734375 -4.578125 -4.734375 -11.421875q0 -5.09375 2.578125 -8.53125q2.59375 -3.453125 7.375 -4.703125zm-1.28125 -10.859375q0 3.703125 2.375 6.0625q2.390625 2.34375 6.203125 2.34375q3.71875 0 6.078125 -2.328125q2.375 -2.34375 2.375 -5.734375q0 -3.515625 -2.4375 -5.921875q-2.4375 -2.40625 -6.078125 -2.40625q-3.671875 0 -6.09375 2.359375q-2.421875 2.34375 -2.421875 5.625zm-2.078125 24.125q0 2.75 1.296875 5.3125q1.3125 2.5625 3.875 3.96875q2.5625 1.40625 5.53125 1.40625q4.59375 0 7.578125 -2.953125q3.0 -2.953125 3.0 -7.515625q0 -4.640625 -3.078125 -7.671875q-3.078125 -3.03125 -7.71875 -3.03125q-4.53125 0 -7.515625 3.0q-2.96875 3.0 -2.96875 7.484375z" fill-rule="nonzero"></path><path fill="#000000" fill-opacity="0.0" d="m252.521 252.96063l205.70078 0l0 105.03937l-205.70078 0z" fill-rule="nonzero"></path><path fill="#f65e3b" d="m310.1363 292.9075l-6.390625 0.5q-0.84375 -3.78125 -2.421875 -5.5q-2.59375 -2.734375 -6.40625 -2.734375q-3.078125 0 -5.390625 1.703125q-3.03125 2.21875 -4.78125 6.453125q-1.734375 4.234375 -1.8125 12.078125q2.3125 -3.515625 5.65625 -5.21875q3.359375 -1.71875 7.03125 -1.71875q6.421875 0 10.921875 4.71875q4.515625 4.71875 4.515625 12.203125q0 4.921875 -2.125 9.15625q-2.125 4.21875 -5.828125 6.46875q-3.703125 2.234375 -8.40625 2.234375q-8.015625 0 -13.078125 -5.890625q-5.0625 -5.90625 -5.0625 -19.453125q0 -15.140625 5.59375 -22.03125q4.875 -5.984375 13.15625 -5.984375q6.15625 0 10.09375 3.46875q3.9375 3.453125 4.734375 9.546875zm-26.203125 22.515625q0 3.328125 1.40625 6.359375q1.40625 3.015625 3.9375 4.609375q2.53125 1.578125 5.3125 1.578125q4.0625 0 6.984375 -3.265625q2.921875 -3.28125 2.921875 -8.921875q0 -5.421875 -2.890625 -8.53125q-2.875 -3.125 -7.265625 -3.125q-4.34375 0 -7.375 3.125q-3.03125 3.109375 -3.03125 8.171875zm54.250366 16.9375l0 -12.515625l-22.671875 0l0 -5.875l23.84375 -33.859375l5.25 0l0 33.859375l7.0625 0l0 5.875l-7.0625 0l0 12.515625l-6.421875 0zm0 -18.390625l0 -23.5625l-16.359375 23.5625l16.359375 0z" fill-rule="nonzero"></path><path fill="#060606" d="m382.57452 332.36063l-6.421875 0l0 -40.890625q-2.3125 2.21875 -6.078125 4.4375q-3.765625 2.203125 -6.75 3.296875l0 -6.203125q5.375 -2.515625 9.40625 -6.109375q4.03125 -3.609375 5.703125 -7.0l4.140625 0l0 52.46875zm40.781616 0l-6.421875 0l0 -40.890625q-2.3125 2.21875 -6.078125 4.4375q-3.765625 2.203125 -6.75 3.296875l0 -6.203125q5.375 -2.515625 9.40625 -6.109375q4.03125 -3.609375 5.703125 -7.0l4.140625 0l0 52.46875z" fill-rule="nonzero"></path><path fill="#000000" fill-opacity="0.0" d="m252.52252 71.02379l0 363.87402" fill-rule="nonzero"></path><path stroke="#d9d9d9" stroke-width="2.0" stroke-linejoin="round" stroke-linecap="butt" d="m252.52252 71.02379l0 363.87402" fill-rule="nonzero"></path><path fill="#000000" fill-opacity="0.0" d="m434.46085 252.9608l-363.87402 0" fill-rule="nonzero"></path><path stroke="#d9d9d9" stroke-width="2.0" stroke-linejoin="round" stroke-linecap="butt" d="m434.46085 252.9608l-363.87402 0" fill-rule="nonzero"></path></g></svg>

