<?xml version="1.0" standalone="yes"?>

<svg version="1.1" viewBox="0.0 0.0 505.0472440944882 505.9212598425197" fill="none" stroke="none" stroke-linecap="square" stroke-miterlimit="10" xmlns="http://www.w3.org/2000/svg" xmlns:xlink="http://www.w3.org/1999/xlink"><clipPath id="p.0"><path d="m0 0l505.04724 0l0 505.92126l-505.04724 0l0 -505.92126z" clip-rule="nonzero"></path></clipPath><g clip-path="url(#p.0)"><path fill="#000000" fill-opacity="0.0" d="m0 0l505.04724 0l0 505.92126l-505.04724 0z" fill-rule="nonzero"></path><path fill="#5c2040" d="m29.279528 252.96063l0 0c0 -123.29431 99.94978 -223.2441 223.2441 -223.2441l0 0c59.208008 0 115.99103 23.520292 157.85742 65.38668c41.866394 41.866386 65.38669 98.64939 65.38669 157.85742l0 0c0 123.29431 -99.9498 223.24408 -223.24411 223.24408l0 0c-123.29431 0 -223.2441 -99.94977 -223.2441 -223.24408z" fill-rule="nonzero"></path><path stroke="#980000" stroke-width="8.0" stroke-linejoin="round" stroke-linecap="butt" d="m29.279528 252.96063l0 0c0 -123.29431 99.94978 -223.2441 223.2441 -223.2441l0 0c59.208008 0 115.99103 23.520292 157.85742 65.38668c41.866394 41.866386 65.38669 98.64939 65.38669 157.85742l0 0c0 123.29431 -99.9498 223.24408 -223.24411 223.24408l0 0c-123.29431 0 -223.2441 -99.94977 -223.2441 -223.24408z" fill-rule="nonzero"></path><path fill="#000000" fill-opacity="0.0" d="m133.45013 94.13386l238.14172 0l0 43.590553l-238.14172 0z" fill-rule="nonzero"></path><path fill="#ffffff" d="m161.46576 149.88573q-8.125 0 -12.375 -4.515625q-4.234375 -4.515625 -4.234375 -12.8125q0 -4.125 1.28125 -7.3593674q1.296875 -3.25 3.546875 -5.484375q2.265625 -2.234375 5.390625 -3.375q3.125 -1.15625 6.765625 -1.15625q2.109375 0 3.828125 0.3125q1.734375 0.3125 3.03125 0.71875q1.296875 0.40625 2.15625 0.84375q0.875 0.421875 1.25 0.671875l-2.15625 6.046875q-1.53125 -0.8125 -3.578125 -1.390625q-2.03125 -0.578125 -4.625 -0.578125q-1.734375 0 -3.390625 0.578125q-1.65625 0.578125 -2.921875 1.84375q-1.265625 1.265625 -2.046875 3.28125q-0.765625 2.0156174 -0.765625 4.9062424q0 2.296875 0.5 4.296875q0.515625 1.984375 1.640625 3.4375q1.125 1.4375 2.953125 2.28125q1.828125 0.828125 4.421875 0.828125q1.625 0 2.921875 -0.1875q1.296875 -0.203125 2.296875 -0.453125q1.015625 -0.265625 1.78125 -0.59375q0.765625 -0.34375 1.390625 -0.640625l2.0625 6.0q-1.578125 0.96875 -4.46875 1.734375q-2.875 0.765625 -6.65625 0.765625zm25.104065 -5.65625q1.046875 0 2.0 -0.046875q0.96875 -0.0625 1.546875 -0.15625l0 -5.421875q-0.4375 -0.09375 -1.296875 -0.1875q-0.859375 -0.09375 -1.578125 -0.09375q-1.015625 0 -1.90625 0.125q-0.890625 0.109375 -1.5625 0.453125q-0.671875 0.328125 -1.0625 0.90625q-0.375 0.578125 -0.375 1.4375q0 1.6875 1.125 2.34375q1.140625 0.640625 3.109375 0.640625zm-0.578125 -20.937492q3.15625 0 5.265625 0.71875q2.125 0.71875 3.390625 2.0625q1.28125 1.34375 1.796875 3.2656174q0.53125 1.921875 0.53125 4.28125l0 14.875q-1.53125 0.328125 -4.265625 0.78125q-2.734375 0.46875 -6.625 0.46875q-2.453125 0 -4.453125 -0.4375q-1.984375 -0.4375 -3.421875 -1.40625q-1.4375 -0.984375 -2.203125 -2.5625q-0.765625 -1.59375 -0.765625 -3.90625q0 -2.203125 0.875 -3.734375q0.890625 -1.546875 2.375 -2.453125q1.5 -0.90625 3.40625 -1.3125q1.921875 -0.421875 4.0 -0.421875q1.390625 0 2.46875 0.125q1.078125 0.125 1.75 0.3125l0 -0.671875q0 -1.828125 -1.109375 -2.921875q-1.09375 -1.109375 -3.84375 -1.109375q-1.8125 0 -3.59375 0.265625q-1.78125 0.265625 -3.078125 0.75l-0.90625 -5.7656174q0.625 -0.1875 1.5625 -0.40625q0.9375 -0.21875 2.03125 -0.390625q1.109375 -0.171875 2.328125 -0.28125q1.234375 -0.125 2.484375 -0.125zm32.684677 7.0156174q-0.96875 -0.25 -2.265625 -0.515625q-1.28125 -0.265625 -2.78125 -0.265625q-0.671875 0 -1.609375 0.125q-0.9375 0.125 -1.40625 0.265625l0 19.296875l-7.15625 0l0 -23.906242q1.921875 -0.671875 4.53125 -1.265625q2.625 -0.609375 5.84375 -0.609375q0.5625 0 1.375 0.078125q0.828125 0.078125 1.640625 0.203125q0.8125 0.109375 1.625 0.28125q0.828125 0.15625 1.40625 0.40625l-1.203125 5.9062424zm15.1154175 19.390625q-3.125 -0.046875 -5.0625 -0.671875q-1.9375 -0.625 -3.078125 -1.75q-1.125 -1.140625 -1.53125 -2.734375q-0.40625 -1.609375 -0.40625 -3.625l0 -27.796867l7.15625 -1.15625l0 27.499992q0 0.96875 0.140625 1.734375q0.140625 0.765625 0.546875 1.296875q0.40625 0.53125 1.171875 0.875q0.78125 0.328125 2.078125 0.421875l-1.015625 5.90625zm12.339905 -5.625q1.96875 0 2.78125 -0.375q0.8125 -0.390625 0.8125 -1.5q0 -0.859375 -1.0625 -1.5q-1.046875 -0.65625 -3.203125 -1.46875q-1.6875 -0.625 -3.0625 -1.296875q-1.359375 -0.671875 -2.328125 -1.609375q-0.953125 -0.9375 -1.484375 -2.234375q-0.515625 -1.296875 -0.515625 -3.109375q0 -3.5624924 2.640625 -5.6249924q2.640625 -2.0625 7.25 -2.0625q2.296875 0 4.40625 0.40625q2.109375 0.40625 3.359375 0.890625l-1.25 5.5624924q-1.234375 -0.421875 -2.703125 -0.75q-1.46875 -0.34375 -3.296875 -0.34375q-3.359375 0 -3.359375 1.875q0 0.421875 0.140625 0.765625q0.15625 0.328125 0.578125 0.640625q0.4375 0.3125 1.171875 0.671875q0.75 0.359375 1.90625 0.796875q2.359375 0.859375 3.890625 1.703125q1.53125 0.84375 2.421875 1.828125q0.89060974 0.984375 1.2499847 2.1875q0.359375 1.1875 0.359375 2.78125q0 3.734375 -2.8124847 5.65625q-2.796875 1.921875 -7.9375 1.921875q-3.359375 0 -5.59375 -0.578125q-2.234375 -0.578125 -3.09375 -0.953125l1.203125 -5.8125q1.8125 0.71875 3.734375 1.125q1.921875 0.40625 3.796875 0.40625zm39.63942 -7.53125q0 2.96875 -0.859375 5.453125q-0.859375 2.46875 -2.5 4.21875q-1.625 1.75 -3.90625 2.71875q-2.28125 0.953125 -5.109375 0.953125q-2.78125 0 -5.0625 -0.953125q-2.28125 -0.96875 -3.921875 -2.71875q-1.625 -1.75 -2.546875 -4.21875q-0.90625 -2.484375 -0.90625 -5.453125q0 -2.96875 0.9375 -5.421875q0.9375 -2.453125 2.59375 -4.1718674q1.65625 -1.734375 3.9375 -2.6875q2.28125 -0.96875 4.96875 -0.96875q2.734375 0 5.015625 0.96875q2.28125 0.953125 3.90625 2.6875q1.640625 1.7187424 2.546875 4.1718674q0.90625 2.453125 0.90625 5.421875zm-7.28125 0q0 -3.3125 -1.328125 -5.203125q-1.3125 -1.90625 -3.765625 -1.90625q-2.453125 0 -3.796875 1.90625q-1.34375 1.890625 -1.34375 5.203125q0 3.3125 1.34375 5.265625q1.34375 1.9375 3.796875 1.9375q2.453125 0 3.765625 -1.9375q1.328125 -1.953125 1.328125 -5.265625zm12.807922 -11.718742q1.828125 -0.515625 4.703125 -0.96875q2.875 -0.46875 6.046875 -0.46875q3.21875 0 5.34375 0.84375q2.140625 0.84375 3.390625 2.375q1.25 1.5312424 1.78125 3.6562424q0.53125 2.109375 0.53125 4.703125l0 14.25l-7.15625 0l0 -13.390625q0 -3.453125 -0.921875 -4.890625q-0.90625 -1.453125 -3.390625 -1.453125q-0.78125 0 -1.640625 0.078125q-0.859375 0.078125 -1.53125 0.171875l0 19.484375l-7.15625 0l0 -24.390617zm28.75644 -8.875l7.484375 0l0 33.265617l-7.484375 0l0 -33.265617zm39.839905 0l0 6.390625l-10.03125 0l0 26.874992l-7.5 0l0 -26.874992l-10.03125 0l0 -6.390625l27.5625 0z" fill-rule="nonzero"></path><path fill="#5c2040" d="m205.82939 221.83234l0 0c0 -8.5961 6.968521 -15.564621 15.564621 -15.564621l62.25659 0l0 0c4.1279907 0 8.086914 1.6398468 11.005859 4.558777c2.9189148 2.91893 4.5587463 6.8778534 4.5587463 11.005844l0 62.25659c0 8.5961 -6.968506 15.564606 -15.564606 15.564606l-62.25659 0c-8.5961 0 -15.564621 -6.968506 -15.564621 -15.564606z" fill-rule="nonzero"></path><path stroke="#ffffff" stroke-width="8.0" stroke-linejoin="round" stroke-linecap="butt" d="m205.82939 221.83234l0 0c0 -8.5961 6.968521 -15.564621 15.564621 -15.564621l62.25659 0l0 0c4.1279907 0 8.086914 1.6398468 11.005859 4.558777c2.9189148 2.91893 4.5587463 6.8778534 4.5587463 11.005844l0 62.25659c0 8.5961 -6.968506 15.564606 -15.564606 15.564606l-62.25659 0c-8.5961 0 -15.564621 -6.968506 -15.564621 -15.564606z" fill-rule="nonzero"></path><path fill="#000000" fill-opacity="0.0" d="m164.30446 353.49344l176.44093 0" fill-rule="nonzero"></path><path stroke="#ffffff" stroke-width="4.0" stroke-linejoin="round" stroke-linecap="butt" d="m164.30446 353.49344l176.44093 0" fill-rule="nonzero"></path><path fill="#000000" fill-opacity="0.0" d="m164.30315 368.19684l176.44093 0" fill-rule="nonzero"></path><path stroke="#ffffff" stroke-width="4.0" stroke-linejoin="round" stroke-linecap="butt" d="m164.30315 368.19684l176.44093 0" fill-rule="nonzero"></path><path fill="#000000" fill-opacity="0.0" d="m164.30315 382.90027l176.44093 0" fill-rule="nonzero"></path><path stroke="#ffffff" stroke-width="4.0" stroke-linejoin="round" stroke-linecap="butt" d="m164.30315 382.90027l176.44093 0" fill-rule="nonzero"></path></g></svg>

