<?xml version="1.0" standalone="yes"?>

<svg version="1.1" viewBox="0.0 0.0 505.0472440944882 505.9212598425197" fill="none" stroke="none" stroke-linecap="square" stroke-miterlimit="10" xmlns="http://www.w3.org/2000/svg" xmlns:xlink="http://www.w3.org/1999/xlink"><clipPath id="p.0"><path d="m0 0l505.04724 0l0 505.92126l-505.04724 0l0 -505.92126z" clip-rule="nonzero"></path></clipPath><g clip-path="url(#p.0)"><path fill="#000000" fill-opacity="0.0" d="m0 0l505.04724 0l0 505.92126l-505.04724 0z" fill-rule="nonzero"></path><path fill="#2a333c" d="m29.278215 252.96063l0 0c0 -123.29431 99.94978 -223.2441 223.2441 -223.2441l0 0c59.208008 0 115.99103 23.520292 157.85742 65.38668c41.866394 41.866386 65.38669 98.64939 65.38669 157.85742l0 0c0 123.29431 -99.9498 223.24408 -223.24411 223.24408l0 0c-123.29431 0 -223.2441 -99.94977 -223.2441 -223.24408z" fill-rule="nonzero"></path><path stroke="#2a333c" stroke-width="4.0" stroke-linejoin="round" stroke-linecap="butt" d="m29.278215 252.96063l0 0c0 -123.29431 99.94978 -223.2441 223.2441 -223.2441l0 0c59.208008 0 115.99103 23.520292 157.85742 65.38668c41.866394 41.866386 65.38669 98.64939 65.38669 157.85742l0 0c0 123.29431 -99.9498 223.24408 -223.24411 223.24408l0 0c-123.29431 0 -223.2441 -99.94977 -223.2441 -223.24408z" fill-rule="nonzero"></path><path fill="#000000" fill-opacity="0.0" d="m193.93666 71.03429l0 363.87402" fill-rule="nonzero"></path><path stroke="#b94a48" stroke-width="4.0" stroke-linejoin="round" stroke-linecap="butt" d="m193.93666 71.03429l0 363.87402" fill-rule="nonzero"></path><path fill="#000000" fill-opacity="0.0" d="m307.64456 71.03429l0 363.87402" fill-rule="nonzero"></path><path stroke="#b94a48" stroke-width="4.0" stroke-linejoin="round" stroke-linecap="butt" d="m307.64456 71.03429l0 363.87402" fill-rule="nonzero"></path><path fill="#000000" fill-opacity="0.0" d="m70.59396 309.83047l363.87402 0" fill-rule="nonzero"></path><path stroke="#b94a48" stroke-width="4.0" stroke-linejoin="round" stroke-linecap="butt" d="m70.59396 309.83047l363.87402 0" fill-rule="nonzero"></path><path fill="#000000" fill-opacity="0.0" d="m70.59396 196.12257l363.87402 0" fill-rule="nonzero"></path><path stroke="#b94a48" stroke-width="4.0" stroke-linejoin="round" stroke-linecap="butt" d="m70.59396 196.12257l363.87402 0" fill-rule="nonzero"></path><path fill="#000000" fill-opacity="0.0" d="m116.173225 99.62205l77.76379 0l0 96.503944l-77.76379 0z" fill-rule="nonzero"></path><path fill="#b94a48" d="m153.05511 170.06204l0 -43.999992l-6.0 0l0 -6.0q6.03125 -2.15625 8.0 -6.0l6.0 0l0 55.999992l-8.0 0z" fill-rule="nonzero"></path><path fill="#000000" fill-opacity="0.0" d="m307.64566 213.32545l77.763794 0l0 96.50395l-77.763794 0z" fill-rule="nonzero"></path><path fill="#b94a48" d="m346.91818 284.32797q-6.8125 0 -10.40625 -3.828125q-3.59375 -3.828125 -3.59375 -10.734375l0 -2.0l8.0 0q0 1.875 0.109375 3.203125q0.109375 1.328125 0.46875 2.703125q0.359375 1.375 0.984375 2.203125q0.625 0.828125 1.75 1.359375q1.125 0.53125 2.6875 0.53125q1.5625 0 2.6875 -0.53125q1.125 -0.53125 1.75 -1.359375q0.625 -0.828125 0.984375 -2.203125q0.359375 -1.375 0.46875 -2.703125q0.109375 -1.328125 0.109375 -3.203125q0 -4.8125 -1.859375 -7.40625q-1.859375 -2.59375 -6.140625 -2.59375l0 -8.000015q4.375 0 6.1875 -1.796875q1.8125 -1.796875 1.8125 -6.203125q0 -3.96875 -1.3125 -5.984375q-1.3125 -2.015625 -4.6875 -2.015625q-1.5625 0 -2.6875 0.53125q-1.125 0.53125 -1.75 1.359375q-0.625 0.828125 -0.984375 2.203125q-0.359375 1.375 -0.46875 2.703125q-0.109375 1.328125 -0.109375 3.203125l-8.0 0l0 -2.0q0 -6.875 3.609375 -10.71875q3.609375 -3.84375 10.390625 -3.84375q6.8125 0 10.40625 3.828125q3.59375 3.828125 3.59375 10.734375q0 4.75 -2.125 7.796875q-2.125 3.046875 -5.875 4.203125q3.90625 1.3125 5.953125 4.9062653q2.046875 3.59375 2.046875 9.09375q0 7.875 -3.375 12.21875q-3.375 4.34375 -10.625 4.34375z" fill-rule="nonzero"></path><path fill="#000000" fill-opacity="0.0" d="m116.173225 309.8294l77.76379 0l0 96.50394l-77.76379 0z" fill-rule="nonzero"></path><path fill="#b94a48" d="m155.08636 347.05066q1.5625 0 2.609375 -0.71875q1.046875 -0.71875 1.546875 -2.078125q0.5 -1.359375 0.671875 -2.734375q0.171875 -1.375 0.171875 -3.25q0 -8.0 -5.0 -8.0q-5.0625 0 -5.0625 8.0q0 1.875 0.1875 3.265625q0.1875 1.390625 0.6875 2.734375q0.5 1.34375 1.546875 2.0625q1.046875 0.71875 2.640625 0.71875zm-2.6875 26.671875q1.125 0.546875 2.6875 0.546875q1.5625 0 2.6875 -0.5625q1.125 -0.5625 1.75 -1.40625q0.625 -0.84375 0.984375 -2.234375q0.359375 -1.390625 0.453125 -2.671875q0.09375 -1.28125 0.09375 -3.09375q0 -2.0 -0.25 -3.578125q-0.25 -1.578125 -0.875 -3.015625q-0.625 -1.4375 -1.84375 -2.21875q-1.21875 -0.78125 -3.0 -0.78125q-1.78125 0 -3.015625 0.78125q-1.234375 0.78125 -1.875 2.203125q-0.640625 1.421875 -0.890625 3.0q-0.25 1.578125 -0.25 3.609375q0 1.8125 0.109375 3.109375q0.109375 1.296875 0.46875 2.6875q0.359375 1.390625 1.0 2.234375q0.640625 0.84375 1.765625 1.390625zm2.6875 7.109375q-7.375 0 -10.703125 -4.265625q-3.328125 -4.265625 -3.328125 -12.265625q0 -5.21875 1.4375 -8.390625q1.4375 -3.171875 4.625 -5.203125q-2.6875 -2.03125 -3.96875 -5.0q-1.28125 -2.96875 -1.28125 -7.4375q0 -6.9375 3.3125 -10.75q3.3125 -3.8125 9.90625 -3.8125q6.5625 0 9.859375 3.828125q3.296875 3.828125 3.296875 10.734375q0 4.5 -1.265625 7.453125q-1.265625 2.953125 -3.953125 4.984375q3.15625 2.0625 4.59375 5.25q1.4375 3.1875 1.4375 8.34375q0 8.0 -3.3125 12.265625q-3.3125 4.265625 -10.65625 4.265625z" fill-rule="nonzero"></path></g></svg>

